<svg width="10" height="10" viewBox="0 0 10 10" fill="none" xmlns="http://www.w3.org/2000/svg">
<path fill-rule="evenodd" clip-rule="evenodd" d="M8.52858 0.52859C8.78892 0.268241 9.21104 0.268241 9.47138 0.52859C9.73173 0.78894 9.73173 1.21105 9.47138 1.4714L5.94279 5L9.47138 8.52859C9.73173 8.78894 9.73173 9.21105 9.47138 9.4714C9.21104 9.73175 8.78892 9.73175 8.52858 9.4714L4.99998 5.9428L1.47138 9.4714C1.21103 9.73175 0.788925 9.73175 0.528575 9.4714C0.268226 9.21105 0.268226 8.78894 0.528575 8.52859L4.05717 5L0.528575 1.4714C0.268226 1.21105 0.268226 0.78894 0.528575 0.52859C0.788925 0.268241 1.21103 0.268241 1.47138 0.52859L4.99998 4.05719L8.52858 0.52859Z" fill="black"/>
<path fill-rule="evenodd" clip-rule="evenodd" d="M8.52858 0.52859C8.78892 0.268241 9.21104 0.268241 9.47138 0.52859C9.73173 0.78894 9.73173 1.21105 9.47138 1.4714L5.94279 5L9.47138 8.52859C9.73173 8.78894 9.73173 9.21105 9.47138 9.4714C9.21104 9.73175 8.78892 9.73175 8.52858 9.4714L4.99998 5.9428L1.47138 9.4714C1.21103 9.73175 0.788925 9.73175 0.528575 9.4714C0.268226 9.21105 0.268226 8.78894 0.528575 8.52859L4.05717 5L0.528575 1.4714C0.268226 1.21105 0.268226 0.78894 0.528575 0.52859C0.788925 0.268241 1.21103 0.268241 1.47138 0.52859L4.99998 4.05719L8.52858 0.52859Z" fill="#2A59FE" fill-opacity="0.3"/>
<path fill-rule="evenodd" clip-rule="evenodd" d="M8.52858 0.52859C8.78892 0.268241 9.21104 0.268241 9.47138 0.52859C9.73173 0.78894 9.73173 1.21105 9.47138 1.4714L5.94279 5L9.47138 8.52859C9.73173 8.78894 9.73173 9.21105 9.47138 9.4714C9.21104 9.73175 8.78892 9.73175 8.52858 9.4714L4.99998 5.9428L1.47138 9.4714C1.21103 9.73175 0.788925 9.73175 0.528575 9.4714C0.268226 9.21105 0.268226 8.78894 0.528575 8.52859L4.05717 5L0.528575 1.4714C0.268226 1.21105 0.268226 0.78894 0.528575 0.52859C0.788925 0.268241 1.21103 0.268241 1.47138 0.52859L4.99998 4.05719L8.52858 0.52859Z" fill="white" fill-opacity="0.35"/>
</svg>
